<svg width="2641" height="1181" viewBox="0 0 2641 1181" fill="none" xmlns="http://www.w3.org/2000/svg">
<path d="M626.093 372.734L631.246 367.581C633.537 368.726 636.399 372.161 639.835 377.887C643.843 383.612 646.133 388.765 646.706 393.346C647.851 397.926 648.423 402.22 648.423 406.228C648.423 421.687 644.988 437.433 638.117 453.465L481.809 797H473.22L349.547 464.629L198.392 797H189.803L30.0594 367.581H90.1781L221.58 723.14L345.253 454.323L313.476 367.581H373.595L504.997 723.14L629.529 453.465C636.4 441.441 639.835 427.127 639.835 410.523C639.835 393.918 635.254 381.322 626.093 372.734ZM1056.81 797C1033.33 797 1015.3 791.847 1002.7 781.541C990.677 771.235 984.379 760.929 983.806 750.623L982.948 736.022V466.347C982.948 421.115 970.924 392.201 946.876 379.604C935.425 373.879 920.825 371.016 903.076 371.016C867.577 371.016 835.514 385.616 806.886 414.817C778.83 443.445 764.803 469.21 764.803 492.112V797H704.684V153.73H764.803V465.488C773.964 440.868 791.427 417.966 817.192 396.781C842.957 375.024 871.871 364.145 903.934 364.145C959.473 364.145 996.403 373.879 1014.72 393.346C1033.62 412.24 1043.07 436.86 1043.07 467.206V736.022C1043.07 752.627 1046.22 765.509 1052.51 774.67C1059.38 783.259 1065.97 787.839 1072.27 788.412L1082.57 790.129H1109.2V797H1056.81ZM1511.25 797C1472.31 797 1445.69 789.557 1431.38 774.67C1418.21 762.074 1411.62 751.195 1411.62 742.034V723.999C1383.57 774.956 1338.62 800.435 1276.78 800.435C1204.64 800.435 1163.7 767.799 1153.97 702.528C1152.83 695.657 1152.25 688.786 1152.25 681.916C1152.25 674.472 1153.4 666.457 1155.69 657.868C1157.98 649.28 1164.56 639.833 1175.44 629.526C1197.2 608.914 1245.01 596.318 1318.87 591.738C1337.19 590.02 1354.08 589.161 1369.54 589.161C1385 589.161 1399.03 589.734 1411.62 590.879V448.311C1410.48 447.739 1410.48 445.162 1411.62 440.582C1412.77 435.429 1411.62 429.131 1408.19 421.687C1405.32 413.672 1401.32 405.942 1396.16 398.499C1391.01 391.056 1381.85 384.757 1368.68 379.604C1355.51 373.879 1338.33 371.016 1317.15 371.016C1295.97 371.016 1271.06 375.024 1242.43 383.04C1214.38 390.483 1193.76 397.926 1180.59 405.37L1177.16 399.358C1228.12 375.883 1279.93 364.145 1332.61 364.145C1391.58 364.145 1430.52 374.738 1449.41 395.922C1464.3 412.527 1471.74 429.99 1471.74 448.311V736.022C1471.74 752.627 1474.89 765.509 1481.19 774.67C1488.06 783.259 1494.93 787.839 1501.8 788.412L1511.25 790.129H1537.87V797H1511.25ZM1290.53 793.565C1320.87 793.565 1348.07 783.259 1372.12 762.646C1396.74 741.462 1409.9 721.136 1411.62 701.669V597.749C1396.16 596.604 1380.42 596.032 1364.39 596.032C1348.93 596.032 1333.47 596.891 1318.01 598.608C1274.49 603.761 1246.15 613.495 1232.98 627.809C1219.81 642.123 1213.23 661.876 1213.23 687.069C1213.23 691.649 1213.52 696.802 1214.09 702.528C1219.24 763.219 1244.72 793.565 1290.53 793.565ZM1597.61 374.451V367.581H1615.64V281.697H1675.76V367.581H1807.16V374.451H1675.76V687.069C1675.76 724.285 1679.77 751.195 1687.79 767.799C1696.37 784.404 1713.84 792.706 1740.17 792.706C1767.09 792.706 1794.28 787.266 1821.76 776.388L1824.34 783.259C1795.71 794.137 1762.79 799.577 1725.57 799.577C1688.93 799.577 1661.45 792.133 1643.13 777.247C1624.8 761.788 1615.64 731.442 1615.64 686.21V374.451H1597.61ZM1950.34 797C1926.87 797 1908.83 791.847 1896.24 781.541C1884.21 771.235 1877.91 760.929 1877.34 750.623L1876.48 736.022V367.581H1936.6V736.022C1936.6 752.627 1939.75 765.509 1946.05 774.67C1952.92 783.259 1959.5 787.839 1965.8 788.412L1976.11 790.129H2002.73V797H1950.34ZM1881.64 271.391C1874.76 264.52 1871.33 255.932 1871.33 245.626C1871.33 235.319 1874.76 226.731 1881.64 219.86C1888.51 212.417 1897.09 208.695 1907.4 208.695C1917.71 208.695 1926.29 212.417 1933.17 219.86C1940.61 226.731 1944.33 235.319 1944.33 245.626C1944.33 255.932 1940.61 264.52 1933.17 271.391C1926.29 278.261 1917.71 281.697 1907.4 281.697C1897.09 281.697 1888.51 278.261 1881.64 271.391ZM2128.67 327.215V367.581H2196.51V374.451H2128.67V797H2068.55V374.451H2050.51V367.581H2068.55V327.215C2068.55 264.806 2082 220.433 2108.91 194.095C2135.82 167.185 2179.34 153.444 2239.46 152.871V159.742C2199.95 160.314 2171.61 173.769 2154.43 200.107C2137.25 225.872 2128.67 268.242 2128.67 327.215ZM2362.57 950.732C2344.25 991.384 2321.63 1011.71 2294.72 1011.71C2282.7 1011.71 2268.67 1009.71 2252.64 1005.7V998.827C2265.81 1002.26 2277.55 1003.98 2287.85 1003.98C2317.05 1003.98 2339.38 986.231 2354.84 950.732L2426.98 797H2426.13L2266.38 367.581H2326.5L2459.62 725.716L2591.02 453.465C2597.89 441.441 2601.33 427.127 2601.33 410.523C2601.33 393.918 2596.75 381.322 2587.59 372.734L2592.74 367.581C2595.03 368.726 2597.89 372.161 2601.33 377.887C2605.34 383.612 2607.63 388.765 2608.2 393.346C2609.34 397.926 2609.92 402.22 2609.92 406.228C2609.92 421.687 2606.48 437.433 2599.61 453.465L2434.71 797L2362.57 950.732Z" fill="white"/>
<path d="M726.75 1124L674.199 964.755H687.394L720.836 1069.86C722.504 1075.16 723.945 1079.71 725.158 1083.51C726.371 1087.15 727.509 1090.56 728.57 1093.74C729.784 1096.78 730.845 1100.11 731.755 1103.75C732.665 1107.24 733.727 1111.49 734.94 1116.49H733.348C735.319 1110.88 737.063 1105.95 738.58 1101.71C740.097 1097.31 741.917 1092.61 744.04 1087.6C746.315 1082.6 748.969 1076.3 752.002 1068.72L777.936 1007.3H789.994L822.98 1084.87C825.558 1090.48 827.757 1095.56 829.577 1100.11C831.549 1104.66 833.066 1108.38 834.127 1111.26C835.341 1113.99 835.644 1115.73 835.037 1116.49H832.762C833.521 1113.61 834.355 1110.5 835.265 1107.17C836.326 1103.83 837.312 1100.42 838.222 1096.93C839.284 1093.44 840.345 1090.03 841.407 1086.69C842.62 1083.2 843.758 1079.94 844.819 1076.91C846.033 1073.72 847.094 1070.69 848.004 1067.81L885.541 964.755H897.825L839.815 1124H827.302L780.894 1015.03L786.809 1015.26L740.628 1124H726.75ZM1092.49 1126.27C1078.84 1126.27 1066.33 1124.23 1054.95 1120.13C1043.73 1115.89 1033.95 1110.2 1025.61 1103.07C1017.42 1095.94 1011.05 1087.45 1006.5 1077.59C1002.1 1067.58 999.901 1056.74 999.901 1045.06C999.901 1033.38 1002.1 1022.61 1006.5 1012.76C1011.05 1002.9 1017.42 994.329 1025.61 987.049C1033.95 979.769 1043.73 974.082 1054.95 969.987C1066.33 965.74 1078.84 963.617 1092.49 963.617C1105.99 963.617 1118.42 965.665 1129.8 969.76C1141.17 973.854 1150.96 979.618 1159.15 987.049C1167.34 994.329 1173.71 1002.97 1178.26 1012.98C1182.96 1022.84 1185.31 1033.53 1185.31 1045.06C1185.31 1056.74 1182.96 1067.58 1178.26 1077.59C1173.71 1087.45 1167.34 1096.02 1159.15 1103.3C1150.96 1110.43 1141.17 1116.04 1129.8 1120.13C1118.42 1124.23 1105.99 1126.27 1092.49 1126.27ZM1092.49 1114.9C1104.17 1114.9 1115.01 1113.16 1125.02 1109.67C1135.03 1106.18 1143.52 1101.25 1150.5 1094.88C1157.63 1088.51 1163.16 1081.16 1167.11 1072.81C1171.2 1064.32 1173.25 1055.07 1173.25 1045.06C1173.25 1035.2 1171.2 1025.95 1167.11 1017.31C1163.16 1008.66 1157.63 1001.23 1150.5 995.011C1143.52 988.793 1135.03 983.94 1125.02 980.452C1115.01 976.812 1104.17 974.992 1092.49 974.992C1080.66 974.992 1069.82 976.812 1059.96 980.452C1050.1 983.94 1041.61 988.793 1034.48 995.011C1027.35 1001.23 1021.82 1008.66 1017.87 1017.31C1013.93 1025.95 1011.96 1035.2 1011.96 1045.06C1011.96 1055.07 1013.93 1064.32 1017.87 1072.81C1021.82 1081.16 1027.35 1088.51 1034.48 1094.88C1041.61 1101.25 1050.1 1106.18 1059.96 1109.67C1069.82 1113.16 1080.66 1114.9 1092.49 1114.9ZM1310.19 1124V964.755H1387.77C1397.32 964.755 1405.82 966.878 1413.25 971.125C1420.68 975.219 1426.6 980.831 1430.99 987.959C1435.54 994.935 1437.82 1002.82 1437.82 1011.62C1437.82 1021.32 1435.54 1029.74 1430.99 1036.87C1426.44 1044 1420.23 1049.53 1412.34 1053.48C1404.6 1057.42 1395.66 1059.39 1385.49 1059.39H1321.57V1124H1310.19ZM1432.59 1124L1381.85 1055.52L1392.09 1050.06L1446.24 1124H1432.59ZM1321.57 1048.02H1384.13C1392.32 1048.02 1399.52 1046.5 1405.74 1043.47C1411.96 1040.28 1416.81 1036.04 1420.3 1030.73C1423.79 1025.27 1425.53 1019.05 1425.53 1012.07C1425.53 1005.4 1423.71 999.334 1420.07 993.874C1416.59 988.414 1411.73 984.092 1405.51 980.907C1399.45 977.722 1392.55 976.129 1384.81 976.129H1321.57V1048.02ZM1569.51 1124V964.755H1580.88V1112.63H1684.39V1124H1569.51ZM1799.94 1124V964.755H1872.51C1885.41 964.755 1897.08 966.802 1907.55 970.897C1918.17 974.992 1927.19 980.603 1934.62 987.732C1942.2 994.708 1948.04 1003.05 1952.14 1012.76C1956.38 1022.46 1958.51 1033 1958.51 1044.38C1958.51 1055.75 1956.38 1066.37 1952.14 1076.23C1948.04 1085.93 1942.2 1094.35 1934.62 1101.48C1927.19 1108.45 1918.17 1113.99 1907.55 1118.09C1897.08 1122.03 1885.41 1124 1872.51 1124H1799.94ZM1811.32 1116.49L1808.13 1112.63H1871.38C1882.6 1112.63 1892.76 1110.96 1901.86 1107.62C1911.11 1104.28 1919 1099.58 1925.52 1093.52C1932.04 1087.3 1937.12 1080.09 1940.76 1071.9C1944.4 1063.56 1946.22 1054.39 1946.22 1044.38C1946.22 1034.52 1944.4 1025.5 1940.76 1017.31C1937.12 1008.96 1932.04 1001.76 1925.52 995.694C1919 989.476 1911.11 984.698 1901.86 981.362C1892.76 977.873 1882.6 976.129 1871.38 976.129H1807.45L1811.32 972.717V1116.49Z" fill="white"/>
</svg>